<svg width="213" height="25" viewBox="0 0 213 25" fill="none" xmlns="http://www.w3.org/2000/svg">
<g clip-path="url(#clip0_1_26904)">
<path fill-rule="evenodd" clip-rule="evenodd" d="M16.765 0.871094C16.8644 2.13231 16.4668 3.39353 15.6614 4.36447C14.8759 5.34542 13.6927 5.90597 12.4399 5.89596C12.3603 4.66476 12.768 3.45359 13.5734 2.5327C14.3887 1.59179 15.5322 1.00122 16.765 0.871094ZM20.7468 8.29707C19.2982 9.18597 18.4091 10.7441 18.3891 12.4419C18.3891 14.3596 19.538 16.0874 21.3162 16.8365C20.9765 17.9351 20.4671 18.9838 19.7977 19.9227C18.9086 21.261 17.9696 22.5694 16.4811 22.5894C15.7727 22.604 15.296 22.4013 14.7999 22.1903C14.2816 21.9699 13.742 21.7404 12.8946 21.7404C11.9996 21.7404 11.4352 21.9762 10.8899 22.2039C10.4187 22.4007 9.96179 22.5916 9.31818 22.6193C7.8996 22.6793 6.82068 21.2011 5.89161 19.8727C4.04347 17.1661 2.60491 12.2522 4.53298 8.90632C5.44207 7.27834 7.13037 6.23963 8.9985 6.1797C9.80316 6.1627 10.5757 6.47348 11.2523 6.74566C11.7685 6.95332 12.2288 7.13851 12.6049 7.13851C12.9335 7.13851 13.3787 6.96208 13.8983 6.75615C14.7217 6.42986 15.7318 6.02953 16.7608 6.13975C18.3492 6.18969 19.8277 6.9887 20.7468 8.29707Z" fill="white" style="fill:white;fill-opacity:1;"/>
</g>
<path d="M31.4266 16.4453H29.9357L33.2857 7.13622H34.9085L38.2585 16.4453H36.7676L34.1357 8.82713H34.063L31.4266 16.4453ZM31.6766 12.7999H36.513V13.9817H31.6766V12.7999ZM39.4937 19.0635V9.46349H40.821V10.5953H40.9346C41.0134 10.4499 41.127 10.2817 41.2755 10.0908C41.424 9.89986 41.6301 9.73319 41.8937 9.59077C42.1573 9.44531 42.5058 9.37259 42.9391 9.37259C43.5028 9.37259 44.0058 9.51501 44.4482 9.79986C44.8907 10.0847 45.2376 10.4953 45.4891 11.0317C45.7437 11.568 45.871 12.2135 45.871 12.968C45.871 13.7226 45.7452 14.3696 45.4937 14.9089C45.2422 15.4453 44.8967 15.8589 44.4573 16.1499C44.0179 16.4377 43.5164 16.5817 42.9528 16.5817C42.5285 16.5817 42.1816 16.5105 41.9119 16.368C41.6452 16.2256 41.4361 16.0589 41.2846 15.868C41.1331 15.6771 41.0164 15.5074 40.9346 15.3589H40.8528V19.0635H39.4937ZM40.8255 12.9544C40.8255 13.4453 40.8967 13.8756 41.0391 14.2453C41.1816 14.615 41.3876 14.9044 41.6573 15.1135C41.927 15.3196 42.2573 15.4226 42.6482 15.4226C43.0543 15.4226 43.3937 15.315 43.6664 15.0999C43.9391 14.8817 44.1452 14.5862 44.2846 14.2135C44.427 13.8408 44.4982 13.4211 44.4982 12.9544C44.4982 12.4938 44.4285 12.0802 44.2891 11.7135C44.1528 11.3468 43.9467 11.0574 43.671 10.8453C43.3982 10.6332 43.0573 10.5271 42.6482 10.5271C42.2543 10.5271 41.921 10.6286 41.6482 10.8317C41.3785 11.0347 41.174 11.318 41.0346 11.6817C40.8952 12.0453 40.8255 12.4696 40.8255 12.9544ZM47.3937 19.0635V9.46349H48.721V10.5953H48.8346C48.9134 10.4499 49.027 10.2817 49.1755 10.0908C49.324 9.89986 49.5301 9.73319 49.7937 9.59077C50.0573 9.44531 50.4058 9.37259 50.8391 9.37259C51.4028 9.37259 51.9058 9.51501 52.3482 9.79986C52.7907 10.0847 53.1376 10.4953 53.3891 11.0317C53.6437 11.568 53.771 12.2135 53.771 12.968C53.771 13.7226 53.6452 14.3696 53.3937 14.9089C53.1422 15.4453 52.7967 15.8589 52.3573 16.1499C51.9179 16.4377 51.4164 16.5817 50.8528 16.5817C50.4285 16.5817 50.0816 16.5105 49.8119 16.368C49.5452 16.2256 49.3361 16.0589 49.1846 15.868C49.0331 15.6771 48.9164 15.5074 48.8346 15.3589H48.7528V19.0635H47.3937ZM48.7255 12.9544C48.7255 13.4453 48.7967 13.8756 48.9391 14.2453C49.0816 14.615 49.2876 14.9044 49.5573 15.1135C49.827 15.3196 50.1573 15.4226 50.5482 15.4226C50.9543 15.4226 51.2937 15.315 51.5664 15.0999C51.8391 14.8817 52.0452 14.5862 52.1846 14.2135C52.327 13.8408 52.3982 13.4211 52.3982 12.9544C52.3982 12.4938 52.3285 12.0802 52.1891 11.7135C52.0528 11.3468 51.8467 11.0574 51.571 10.8453C51.2982 10.6332 50.9573 10.5271 50.5482 10.5271C50.1543 10.5271 49.821 10.6286 49.5482 10.8317C49.2785 11.0347 49.074 11.318 48.9346 11.6817C48.7952 12.0453 48.7255 12.4696 48.7255 12.9544ZM60.4801 9.58168C60.4316 9.15137 60.2316 8.81804 59.8801 8.58168C59.5285 8.34228 59.0861 8.22259 58.5528 8.22259C58.171 8.22259 57.8407 8.28319 57.5619 8.4044C57.2831 8.52258 57.0664 8.68622 56.9119 8.89531C56.7604 9.10137 56.6846 9.33622 56.6846 9.59986C56.6846 9.82107 56.7361 10.012 56.8391 10.1726C56.9452 10.3332 57.0831 10.468 57.2528 10.5771C57.4255 10.6832 57.6104 10.7726 57.8073 10.8453C58.0043 10.915 58.1937 10.9726 58.3755 11.018L59.2846 11.2544C59.5816 11.3271 59.8861 11.4256 60.1982 11.5499C60.5104 11.6741 60.7998 11.8377 61.0664 12.0408C61.3331 12.2438 61.5482 12.4953 61.7119 12.7953C61.8785 13.0953 61.9619 13.4544 61.9619 13.8726C61.9619 14.3999 61.8255 14.868 61.5528 15.2771C61.2831 15.6862 60.8907 16.0089 60.3755 16.2453C59.8634 16.4817 59.2437 16.5999 58.5164 16.5999C57.8194 16.5999 57.2164 16.4893 56.7073 16.268C56.1982 16.0468 55.7998 15.7332 55.5119 15.3271C55.224 14.918 55.0649 14.4332 55.0346 13.8726H56.4437C56.471 14.2089 56.5801 14.4893 56.771 14.7135C56.9649 14.9347 57.2119 15.0999 57.5119 15.2089C57.8149 15.315 58.1467 15.368 58.5073 15.368C58.9043 15.368 59.2573 15.3059 59.5664 15.1817C59.8785 15.0544 60.124 14.8786 60.3028 14.6544C60.4816 14.4271 60.571 14.162 60.571 13.8589C60.571 13.5832 60.4922 13.3574 60.3346 13.1817C60.1801 13.0059 59.9694 12.8605 59.7028 12.7453C59.4391 12.6302 59.1407 12.5286 58.8073 12.4408L57.7073 12.1408C56.9619 11.9377 56.371 11.6393 55.9346 11.2453C55.5013 10.8514 55.2846 10.3302 55.2846 9.68168C55.2846 9.14531 55.4301 8.67713 55.721 8.27713C56.0119 7.87713 56.4058 7.56652 56.9028 7.34531C57.3998 7.12107 57.9604 7.00895 58.5846 7.00895C59.2149 7.00895 59.771 7.11955 60.2528 7.34077C60.7376 7.56198 61.1194 7.86652 61.3982 8.2544C61.677 8.63925 61.8225 9.08168 61.8346 9.58168H60.4801ZM66.7903 9.46349V10.5544H62.9766V9.46349H66.7903ZM63.9994 7.79077H65.3585V14.3953C65.3585 14.6589 65.3979 14.8574 65.4766 14.9908C65.5554 15.1211 65.6569 15.2105 65.7812 15.2589C65.9085 15.3044 66.0463 15.3271 66.1948 15.3271C66.3039 15.3271 66.3994 15.3196 66.4812 15.3044C66.563 15.2893 66.6266 15.2771 66.6721 15.268L66.9176 16.3908C66.8388 16.4211 66.7266 16.4514 66.5812 16.4817C66.4357 16.515 66.2539 16.5332 66.0357 16.5362C65.6782 16.5423 65.3448 16.4786 65.0357 16.3453C64.7266 16.212 64.4766 16.0059 64.2857 15.7271C64.0948 15.4483 63.9994 15.0983 63.9994 14.6771V7.79077ZM71.1596 16.5862C70.5051 16.5862 69.9338 16.4362 69.446 16.1362C68.9581 15.8362 68.5793 15.4165 68.3096 14.8771C68.0399 14.3377 67.9051 13.7074 67.9051 12.9862C67.9051 12.262 68.0399 11.6286 68.3096 11.0862C68.5793 10.5438 68.9581 10.1226 69.446 9.82259C69.9338 9.52259 70.5051 9.37259 71.1596 9.37259C71.8141 9.37259 72.3854 9.52259 72.8732 9.82259C73.3611 10.1226 73.7399 10.5438 74.0096 11.0862C74.2793 11.6286 74.4141 12.262 74.4141 12.9862C74.4141 13.7074 74.2793 14.3377 74.0096 14.8771C73.7399 15.4165 73.3611 15.8362 72.8732 16.1362C72.3854 16.4362 71.8141 16.5862 71.1596 16.5862ZM71.1641 15.4453C71.5884 15.4453 71.9399 15.3332 72.2187 15.1089C72.4975 14.8847 72.7035 14.5862 72.8369 14.2135C72.9732 13.8408 73.0414 13.4302 73.0414 12.9817C73.0414 12.5362 72.9732 12.1271 72.8369 11.7544C72.7035 11.3786 72.4975 11.0771 72.2187 10.8499C71.9399 10.6226 71.5884 10.5089 71.1641 10.5089C70.7369 10.5089 70.3823 10.6226 70.1005 10.8499C69.8217 11.0771 69.6141 11.3786 69.4778 11.7544C69.3444 12.1271 69.2778 12.5362 69.2778 12.9817C69.2778 13.4302 69.3444 13.8408 69.4778 14.2135C69.6141 14.5862 69.8217 14.8847 70.1005 15.1089C70.3823 15.3332 70.7369 15.4453 71.1641 15.4453ZM75.9312 16.4453V9.46349H77.2448V10.5726H77.3176C77.4448 10.1968 77.6691 9.90137 77.9903 9.68622C78.3145 9.46804 78.6812 9.35895 79.0903 9.35895C79.1751 9.35895 79.2751 9.36198 79.3903 9.36804C79.5085 9.3741 79.6009 9.38168 79.6676 9.39077V10.6908C79.613 10.6756 79.516 10.6589 79.3766 10.6408C79.2373 10.6196 79.0979 10.6089 78.9585 10.6089C78.6373 10.6089 78.3509 10.6771 78.0994 10.8135C77.8509 10.9468 77.6539 11.1332 77.5085 11.3726C77.363 11.6089 77.2903 11.8786 77.2903 12.1817V16.4453H75.9312ZM83.6028 16.5862C82.9149 16.5862 82.3225 16.4393 81.8255 16.1453C81.3316 15.8483 80.9498 15.4317 80.6801 14.8953C80.4134 14.3559 80.2801 13.7241 80.2801 12.9999C80.2801 12.2847 80.4134 11.6544 80.6801 11.1089C80.9498 10.5635 81.3255 10.1377 81.8073 9.83168C82.2922 9.52562 82.8588 9.37259 83.5073 9.37259C83.9013 9.37259 84.2831 9.43774 84.6528 9.56804C85.0225 9.69834 85.3543 9.90289 85.6482 10.1817C85.9422 10.4605 86.174 10.8226 86.3437 11.268C86.5134 11.7105 86.5982 12.2483 86.5982 12.8817V13.3635H81.0482V12.3453H85.2664C85.2664 11.9877 85.1937 11.6711 85.0482 11.3953C84.9028 11.1165 84.6982 10.8968 84.4346 10.7362C84.174 10.5756 83.8679 10.4953 83.5164 10.4953C83.1346 10.4953 82.8013 10.5893 82.5164 10.7771C82.2346 10.962 82.0164 11.2044 81.8619 11.5044C81.7104 11.8014 81.6346 12.1241 81.6346 12.4726V13.268C81.6346 13.7347 81.7164 14.1317 81.8801 14.4589C82.0467 14.7862 82.2785 15.0362 82.5755 15.2089C82.8725 15.3786 83.2194 15.4635 83.6164 15.4635C83.874 15.4635 84.1088 15.4271 84.321 15.3544C84.5331 15.2786 84.7164 15.1665 84.871 15.018C85.0255 14.8696 85.1437 14.6862 85.2255 14.468L86.5119 14.6999C86.4088 15.0786 86.224 15.4105 85.9573 15.6953C85.6937 15.9771 85.3619 16.1968 84.9619 16.3544C84.5649 16.5089 84.1119 16.5862 83.6028 16.5862Z" fill="#1F2025" style="fill:#1F2025;fill:color(display-p3 0.1216 0.1255 0.1451);fill-opacity:1;"/>
<path d="M132.102 11.1755L127.955 8.81836L124.653 12.1212L127.955 15.4241L132.102 13.067C132.837 12.6522 132.837 11.5901 132.102 11.1755Z" fill="url(#paint0_linear_1_26904)" style=""/>
<path d="M124.653 12.1208L114.788 2.25586C114.591 2.45228 114.468 2.71418 114.468 3.02701V21.2145C114.468 21.5274 114.591 21.7965 114.788 21.9857L124.653 12.1208Z" fill="url(#paint1_linear_1_26904)" style=""/>
<path d="M127.955 8.81842L116.097 2.08177C115.639 1.81987 115.115 1.93627 114.788 2.25637L124.653 12.1213L127.955 8.81842Z" fill="url(#paint2_linear_1_26904)" style=""/>
<path d="M124.653 12.1211L114.788 21.986C115.115 22.3133 115.639 22.4225 116.097 22.1606L127.955 15.4239L124.653 12.1211Z" fill="url(#paint3_linear_1_26904)" style=""/>
<path d="M147.52 10.0771C147.432 9.80137 147.314 9.5544 147.166 9.33622C147.02 9.11501 146.846 8.92713 146.643 8.77259C146.44 8.61501 146.208 8.49531 145.948 8.41349C145.69 8.33168 145.407 8.29077 145.098 8.29077C144.573 8.29077 144.101 8.42562 143.679 8.69531C143.258 8.96501 142.925 9.36046 142.679 9.88168C142.437 10.3999 142.316 11.0347 142.316 11.7862C142.316 12.5408 142.438 13.1786 142.684 13.6999C142.929 14.2211 143.266 14.6165 143.693 14.8862C144.12 15.1559 144.607 15.2908 145.152 15.2908C145.658 15.2908 146.099 15.1877 146.475 14.9817C146.854 14.7756 147.146 14.4847 147.352 14.1089C147.561 13.7302 147.666 13.2847 147.666 12.7726L148.029 12.8408H145.366V11.6817H149.025V12.7408C149.025 13.5226 148.858 14.2014 148.525 14.7771C148.195 15.3499 147.737 15.7923 147.152 16.1044C146.57 16.4165 145.904 16.5726 145.152 16.5726C144.31 16.5726 143.57 16.3786 142.934 15.9908C142.301 15.6029 141.807 15.0529 141.452 14.3408C141.098 13.6256 140.92 12.7771 140.92 11.7953C140.92 11.0529 141.023 10.3862 141.229 9.79531C141.435 9.2044 141.725 8.70289 142.098 8.29077C142.473 7.87562 142.914 7.55895 143.42 7.34077C143.929 7.11955 144.485 7.00895 145.088 7.00895C145.592 7.00895 146.06 7.08319 146.493 7.23168C146.929 7.38016 147.317 7.59077 147.657 7.86349C147.999 8.13622 148.282 8.46046 148.507 8.83622C148.731 9.20895 148.882 9.62259 148.961 10.0771H147.52ZM153.64 16.5862C152.985 16.5862 152.414 16.4362 151.926 16.1362C151.438 15.8362 151.059 15.4165 150.79 14.8771C150.52 14.3377 150.385 13.7074 150.385 12.9862C150.385 12.262 150.52 11.6286 150.79 11.0862C151.059 10.5438 151.438 10.1226 151.926 9.82259C152.414 9.52259 152.985 9.37259 153.64 9.37259C154.294 9.37259 154.865 9.52259 155.353 9.82259C155.841 10.1226 156.22 10.5438 156.49 11.0862C156.759 11.6286 156.894 12.262 156.894 12.9862C156.894 13.7074 156.759 14.3377 156.49 14.8771C156.22 15.4165 155.841 15.8362 155.353 16.1362C154.865 16.4362 154.294 16.5862 153.64 16.5862ZM153.644 15.4453C154.068 15.4453 154.42 15.3332 154.699 15.1089C154.977 14.8847 155.184 14.5862 155.317 14.2135C155.453 13.8408 155.521 13.4302 155.521 12.9817C155.521 12.5362 155.453 12.1271 155.317 11.7544C155.184 11.3786 154.977 11.0771 154.699 10.8499C154.42 10.6226 154.068 10.5089 153.644 10.5089C153.217 10.5089 152.862 10.6226 152.581 10.8499C152.302 11.0771 152.094 11.3786 151.958 11.7544C151.824 12.1271 151.758 12.5362 151.758 12.9817C151.758 13.4302 151.824 13.8408 151.958 14.2135C152.094 14.5862 152.302 14.8847 152.581 15.1089C152.862 15.3332 153.217 15.4453 153.644 15.4453ZM161.352 16.5862C160.698 16.5862 160.126 16.4362 159.638 16.1362C159.151 15.8362 158.772 15.4165 158.502 14.8771C158.232 14.3377 158.098 13.7074 158.098 12.9862C158.098 12.262 158.232 11.6286 158.502 11.0862C158.772 10.5438 159.151 10.1226 159.638 9.82259C160.126 9.52259 160.698 9.37259 161.352 9.37259C162.007 9.37259 162.578 9.52259 163.066 9.82259C163.554 10.1226 163.932 10.5438 164.202 11.0862C164.472 11.6286 164.607 12.262 164.607 12.9862C164.607 13.7074 164.472 14.3377 164.202 14.8771C163.932 15.4165 163.554 15.8362 163.066 16.1362C162.578 16.4362 162.007 16.5862 161.352 16.5862ZM161.357 15.4453C161.781 15.4453 162.132 15.3332 162.411 15.1089C162.69 14.8847 162.896 14.5862 163.029 14.2135C163.166 13.8408 163.234 13.4302 163.234 12.9817C163.234 12.5362 163.166 12.1271 163.029 11.7544C162.896 11.3786 162.69 11.0771 162.411 10.8499C162.132 10.6226 161.781 10.5089 161.357 10.5089C160.929 10.5089 160.575 10.6226 160.293 10.8499C160.014 11.0771 159.807 11.3786 159.67 11.7544C159.537 12.1271 159.47 12.5362 159.47 12.9817C159.47 13.4302 159.537 13.8408 159.67 14.2135C159.807 14.5862 160.014 14.8847 160.293 15.1089C160.575 15.3332 160.929 15.4453 161.357 15.4453ZM169.051 19.2089C168.496 19.2089 168.019 19.1362 167.619 18.9908C167.222 18.8453 166.898 18.6529 166.646 18.4135C166.395 18.1741 166.207 17.912 166.083 17.6271L167.251 17.1453C167.333 17.2786 167.442 17.4196 167.578 17.568C167.718 17.7196 167.906 17.8483 168.142 17.9544C168.381 18.0605 168.689 18.1135 169.065 18.1135C169.58 18.1135 170.006 17.9877 170.342 17.7362C170.678 17.4877 170.846 17.0908 170.846 16.5453V15.1726H170.76C170.678 15.3211 170.56 15.4862 170.406 15.668C170.254 15.8499 170.045 16.0074 169.778 16.1408C169.512 16.2741 169.165 16.3408 168.737 16.3408C168.186 16.3408 167.689 16.212 167.246 15.9544C166.807 15.6938 166.459 15.3105 166.201 14.8044C165.946 14.2953 165.819 13.6696 165.819 12.9271C165.819 12.1847 165.945 11.5483 166.196 11.018C166.451 10.4877 166.799 10.0817 167.242 9.79986C167.684 9.51501 168.186 9.37259 168.746 9.37259C169.18 9.37259 169.53 9.44531 169.796 9.59077C170.063 9.73319 170.271 9.89986 170.419 10.0908C170.571 10.2817 170.687 10.4499 170.769 10.5953H170.869V9.46349H172.201V16.5999C172.201 17.1999 172.062 17.6923 171.783 18.0771C171.504 18.462 171.127 18.7468 170.651 18.9317C170.178 19.1165 169.645 19.2089 169.051 19.2089ZM169.037 15.2135C169.428 15.2135 169.759 15.1226 170.028 14.9408C170.301 14.7559 170.507 14.4923 170.646 14.1499C170.789 13.8044 170.86 13.3908 170.86 12.9089C170.86 12.4393 170.79 12.0256 170.651 11.668C170.512 11.3105 170.307 11.0317 170.037 10.8317C169.768 10.6286 169.434 10.5271 169.037 10.5271C168.628 10.5271 168.287 10.6332 168.015 10.8453C167.742 11.0544 167.536 11.3393 167.396 11.6999C167.26 12.0605 167.192 12.4635 167.192 12.9089C167.192 13.3665 167.262 13.768 167.401 14.1135C167.54 14.4589 167.746 14.7286 168.019 14.9226C168.295 15.1165 168.634 15.2135 169.037 15.2135ZM175.383 7.13622V16.4453H174.024V7.13622H175.383ZM180.22 16.5862C179.532 16.5862 178.94 16.4393 178.443 16.1453C177.949 15.8483 177.567 15.4317 177.298 14.8953C177.031 14.3559 176.898 13.7241 176.898 12.9999C176.898 12.2847 177.031 11.6544 177.298 11.1089C177.567 10.5635 177.943 10.1377 178.425 9.83168C178.91 9.52562 179.476 9.37259 180.125 9.37259C180.519 9.37259 180.901 9.43774 181.27 9.56804C181.64 9.69834 181.972 9.90289 182.266 10.1817C182.56 10.4605 182.792 10.8226 182.961 11.268C183.131 11.7105 183.216 12.2483 183.216 12.8817V13.3635H177.666V12.3453H181.884C181.884 11.9877 181.811 11.6711 181.666 11.3953C181.52 11.1165 181.316 10.8968 181.052 10.7362C180.792 10.5756 180.485 10.4953 180.134 10.4953C179.752 10.4953 179.419 10.5893 179.134 10.7771C178.852 10.962 178.634 11.2044 178.479 11.5044C178.328 11.8014 178.252 12.1241 178.252 12.4726V13.268C178.252 13.7347 178.334 14.1317 178.498 14.4589C178.664 14.7862 178.896 15.0362 179.193 15.2089C179.49 15.3786 179.837 15.4635 180.234 15.4635C180.492 15.4635 180.726 15.4271 180.938 15.3544C181.151 15.2786 181.334 15.1665 181.488 15.018C181.643 14.8696 181.761 14.6862 181.843 14.468L183.129 14.6999C183.026 15.0786 182.842 15.4105 182.575 15.6953C182.311 15.9771 181.979 16.1968 181.579 16.3544C181.182 16.5089 180.729 16.5862 180.22 16.5862ZM188.22 16.4453V7.13622H191.538C192.263 7.13622 192.863 7.26804 193.338 7.53168C193.814 7.79531 194.17 8.15592 194.407 8.61349C194.643 9.06804 194.761 9.58016 194.761 10.1499C194.761 10.7226 194.642 11.2377 194.402 11.6953C194.166 12.1499 193.808 12.5105 193.329 12.7771C192.854 13.0408 192.255 13.1726 191.534 13.1726H189.252V11.9817H191.407C191.864 11.9817 192.235 11.9029 192.52 11.7453C192.805 11.5847 193.014 11.3665 193.148 11.0908C193.281 10.815 193.348 10.5014 193.348 10.1499C193.348 9.79834 193.281 9.48622 193.148 9.21349C193.014 8.94077 192.804 8.72713 192.516 8.57259C192.231 8.41804 191.855 8.34077 191.388 8.34077H189.625V16.4453H188.22ZM197.658 7.13622V16.4453H196.299V7.13622H197.658ZM201.518 16.5999C201.076 16.5999 200.676 16.518 200.318 16.3544C199.96 16.1877 199.677 15.9468 199.468 15.6317C199.262 15.3165 199.159 14.9302 199.159 14.4726C199.159 14.0786 199.235 13.7544 199.386 13.4999C199.538 13.2453 199.742 13.0438 200 12.8953C200.257 12.7468 200.545 12.6347 200.863 12.5589C201.182 12.4832 201.506 12.4256 201.836 12.3862C202.254 12.3377 202.594 12.2983 202.854 12.268C203.115 12.2347 203.304 12.1817 203.423 12.1089C203.541 12.0362 203.6 11.918 203.6 11.7544V11.7226C203.6 11.3256 203.488 11.018 203.263 10.7999C203.042 10.5817 202.712 10.4726 202.273 10.4726C201.815 10.4726 201.454 10.5741 201.191 10.7771C200.93 10.9771 200.75 11.1999 200.65 11.4453L199.373 11.1544C199.524 10.7302 199.745 10.3877 200.036 10.1271C200.33 9.86349 200.668 9.67258 201.05 9.5544C201.432 9.43319 201.833 9.37259 202.254 9.37259C202.533 9.37259 202.829 9.40592 203.141 9.47259C203.456 9.53622 203.75 9.6544 204.023 9.82713C204.298 9.99986 204.524 10.2468 204.7 10.568C204.876 10.8862 204.963 11.2999 204.963 11.8089V16.4453H203.636V15.4908H203.582C203.494 15.6665 203.362 15.8393 203.186 16.0089C203.01 16.1786 202.785 16.3196 202.509 16.4317C202.233 16.5438 201.903 16.5999 201.518 16.5999ZM201.813 15.5089C202.189 15.5089 202.51 15.4347 202.777 15.2862C203.047 15.1377 203.251 14.9438 203.391 14.7044C203.533 14.462 203.604 14.2029 203.604 13.9271V13.0271C203.556 13.0756 203.462 13.1211 203.323 13.1635C203.186 13.2029 203.03 13.2377 202.854 13.268C202.679 13.2953 202.507 13.3211 202.341 13.3453C202.174 13.3665 202.035 13.3847 201.923 13.3999C201.659 13.4332 201.418 13.4893 201.2 13.568C200.985 13.6468 200.812 13.7605 200.682 13.9089C200.554 14.0544 200.491 14.2483 200.491 14.4908C200.491 14.8271 200.615 15.0817 200.863 15.2544C201.112 15.4241 201.429 15.5089 201.813 15.5089ZM207.383 19.0635C207.18 19.0635 206.995 19.0468 206.828 19.0135C206.662 18.9832 206.537 18.9499 206.456 18.9135L206.783 17.7999C207.031 17.8665 207.252 17.8953 207.446 17.8862C207.64 17.8771 207.812 17.8044 207.96 17.668C208.112 17.5317 208.245 17.3089 208.36 16.9999L208.528 16.5362L205.974 9.46349H207.428L209.196 14.8817H209.269L211.037 9.46349H212.496L209.619 17.3771C209.486 17.7408 209.316 18.0483 209.11 18.2999C208.904 18.5544 208.659 18.7453 208.374 18.8726C208.089 18.9999 207.759 19.0635 207.383 19.0635Z" fill="#1F2025" style="fill:#1F2025;fill:color(display-p3 0.1216 0.1255 0.1451);fill-opacity:1;"/>
<defs>
<linearGradient id="paint0_linear_1_26904" x1="124.653" y1="12.1212" x2="132.655" y2="12.1212" gradientUnits="userSpaceOnUse">
<stop stop-color="#F5C042" style="stop-color:#F5C042;stop-color:color(display-p3 0.9608 0.7529 0.2588);stop-opacity:1;"/>
<stop offset="1" stop-color="#FAE14B" style="stop-color:#FAE14B;stop-color:color(display-p3 0.9804 0.8824 0.2941);stop-opacity:1;"/>
</linearGradient>
<linearGradient id="paint1_linear_1_26904" x1="124.653" y1="12.1208" x2="114.468" y2="22.3057" gradientUnits="userSpaceOnUse">
<stop stop-color="#55BBF9" style="stop-color:#55BBF9;stop-color:color(display-p3 0.3333 0.7333 0.9765);stop-opacity:1;"/>
<stop offset="1" stop-color="#67E0FB" style="stop-color:#67E0FB;stop-color:color(display-p3 0.4039 0.8784 0.9843);stop-opacity:1;"/>
</linearGradient>
<linearGradient id="paint2_linear_1_26904" x1="114.468" y1="1.93626" x2="124.653" y2="12.1212" gradientUnits="userSpaceOnUse">
<stop stop-color="#60CC7D" style="stop-color:#60CC7D;stop-color:color(display-p3 0.3765 0.8000 0.4902);stop-opacity:1;"/>
<stop offset="1" stop-color="#6EEC83" style="stop-color:#6EEC83;stop-color:color(display-p3 0.4314 0.9255 0.5137);stop-opacity:1;"/>
</linearGradient>
<linearGradient id="paint3_linear_1_26904" x1="124.653" y1="12.1211" x2="114.468" y2="22.306" gradientUnits="userSpaceOnUse">
<stop stop-color="#EB4D4C" style="stop-color:#EB4D4C;stop-color:color(display-p3 0.9216 0.3020 0.2980);stop-opacity:1;"/>
<stop offset="1" stop-color="#CF3B56" style="stop-color:#CF3B56;stop-color:color(display-p3 0.8118 0.2314 0.3373);stop-opacity:1;"/>
</linearGradient>
<clipPath id="clip0_1_26904">
<rect width="24" height="24" fill="white" style="fill:white;fill-opacity:1;" transform="translate(0.617554 0.121094)"/>
</clipPath>
</defs>
</svg>
