<svg width="25" height="25" viewBox="0 0 25 25" fill="none" xmlns="http://www.w3.org/2000/svg">
<path d="M21.1021 11.1755L16.9554 8.81836L13.6525 12.1212L16.9554 15.4241L21.1021 13.067C21.8369 12.6522 21.8369 11.5901 21.1021 11.1755Z" fill="url(#paint0_linear_1_26912)" style=""/>
<path d="M13.6526 12.1208L3.78769 2.25586C3.59127 2.45228 3.46759 2.71418 3.46759 3.02701V21.2145C3.46759 21.5274 3.59127 21.7965 3.78769 21.9857L13.6526 12.1208Z" fill="url(#paint1_linear_1_26912)" style=""/>
<path d="M16.9553 8.81842L5.09711 2.08177C4.63877 1.81987 4.11498 1.93627 3.7876 2.25637L13.6525 12.1213L16.9553 8.81842Z" fill="url(#paint2_linear_1_26912)" style=""/>
<path d="M13.6525 12.1211L3.7876 21.986C4.11498 22.3133 4.63877 22.4225 5.09711 22.1606L16.9553 15.4239L13.6525 12.1211Z" fill="url(#paint3_linear_1_26912)" style=""/>
<defs>
<linearGradient id="paint0_linear_1_26912" x1="13.6525" y1="12.1212" x2="21.6551" y2="12.1212" gradientUnits="userSpaceOnUse">
<stop stop-color="#F5C042" style="stop-color:#F5C042;stop-color:color(display-p3 0.9608 0.7529 0.2588);stop-opacity:1;"/>
<stop offset="1" stop-color="#FAE14B" style="stop-color:#FAE14B;stop-color:color(display-p3 0.9804 0.8824 0.2941);stop-opacity:1;"/>
</linearGradient>
<linearGradient id="paint1_linear_1_26912" x1="13.6526" y1="12.1208" x2="3.46759" y2="22.3057" gradientUnits="userSpaceOnUse">
<stop stop-color="#55BBF9" style="stop-color:#55BBF9;stop-color:color(display-p3 0.3333 0.7333 0.9765);stop-opacity:1;"/>
<stop offset="1" stop-color="#67E0FB" style="stop-color:#67E0FB;stop-color:color(display-p3 0.4039 0.8784 0.9843);stop-opacity:1;"/>
</linearGradient>
<linearGradient id="paint2_linear_1_26912" x1="3.46754" y1="1.93626" x2="13.6525" y2="12.1212" gradientUnits="userSpaceOnUse">
<stop stop-color="#60CC7D" style="stop-color:#60CC7D;stop-color:color(display-p3 0.3765 0.8000 0.4902);stop-opacity:1;"/>
<stop offset="1" stop-color="#6EEC83" style="stop-color:#6EEC83;stop-color:color(display-p3 0.4314 0.9255 0.5137);stop-opacity:1;"/>
</linearGradient>
<linearGradient id="paint3_linear_1_26912" x1="13.6525" y1="12.1211" x2="3.46754" y2="22.306" gradientUnits="userSpaceOnUse">
<stop stop-color="#EB4D4C" style="stop-color:#EB4D4C;stop-color:color(display-p3 0.9216 0.3020 0.2980);stop-opacity:1;"/>
<stop offset="1" stop-color="#CF3B56" style="stop-color:#CF3B56;stop-color:color(display-p3 0.8118 0.2314 0.3373);stop-opacity:1;"/>
</linearGradient>
</defs>
</svg>
