<svg width="177" height="51" viewBox="0 0 177 51" fill="none" xmlns="http://www.w3.org/2000/svg">
<g clip-path="url(#clip0_1_26922)">
<path d="M16.6176 16.1211C29.9509 16.1211 32.6176 18.7878 32.6176 32.1211C32.6176 45.4544 29.9509 48.1211 16.6176 48.1211C3.28422 48.1211 0.617554 45.4544 0.617554 32.1211C0.617554 18.7878 3.28422 16.1211 16.6176 16.1211Z" fill="url(#paint0_linear_1_26922)" style=""/>
<path fill-rule="evenodd" clip-rule="evenodd" d="M16.6174 24.4687C19.1096 24.4687 19.4045 24.4784 20.3889 24.5232C21.2988 24.5646 21.793 24.7166 22.122 24.8444C22.5577 25.0137 22.8685 25.216 23.1952 25.5424C23.522 25.8691 23.7243 26.18 23.8932 26.6156C24.021 26.9446 24.173 27.4388 24.2144 28.3488C24.2593 29.3328 24.2689 29.628 24.2689 32.1202C24.2689 34.6125 24.2593 34.9074 24.2144 35.8918C24.173 36.8016 24.021 37.2958 23.8932 37.6248C23.724 38.0606 23.5216 38.3714 23.1952 38.6981C22.8685 39.0249 22.5577 39.2272 22.122 39.3961C21.793 39.5239 21.2988 39.6758 20.3889 39.7173C19.4049 39.7622 19.1096 39.7718 16.6174 39.7718C14.1252 39.7718 13.8299 39.7622 12.8459 39.7173C11.936 39.6758 11.4418 39.5239 11.1128 39.3961C10.6771 39.2268 10.3662 39.0245 10.0395 38.6981C9.71277 38.3714 9.51044 38.0606 9.34151 37.6248C9.21371 37.2958 9.06177 36.8016 9.02031 35.8918C8.97551 34.9078 8.96584 34.6125 8.96584 32.1202C8.96584 29.628 8.97551 29.3331 9.02031 28.3488C9.06177 27.4388 9.21371 26.9446 9.34151 26.6156C9.51084 26.18 9.71311 25.8691 10.0395 25.5424C10.3662 25.2156 10.6771 25.0133 11.1128 24.8444C11.4418 24.7166 11.936 24.5646 12.8459 24.5232C13.8302 24.4784 14.1252 24.4687 16.6174 24.4687ZM16.6174 22.7871C14.0826 22.7871 13.7647 22.7978 12.7692 22.8434C11.776 22.8886 11.0976 23.0464 10.5037 23.2772C9.88984 23.5158 9.36931 23.8348 8.85064 24.3538C8.33197 24.8726 8.01257 25.393 7.77437 26.0066C7.54357 26.6004 7.38577 27.2788 7.34057 28.272C7.29497 29.2676 7.28424 29.5854 7.28424 32.1202C7.28424 34.6551 7.29497 34.973 7.34057 35.9684C7.38577 36.9617 7.54357 37.64 7.77437 38.2339C8.01297 38.8478 8.33197 39.3683 8.85097 39.887C9.37004 40.406 9.89017 40.725 10.5041 40.9636C11.0976 41.1944 11.7763 41.3522 12.7696 41.3974C13.765 41.443 14.0829 41.4538 16.6178 41.4538C19.1526 41.4538 19.4704 41.443 20.466 41.3974C21.4592 41.3522 22.1379 41.1944 22.7314 40.9636C23.3453 40.725 23.8658 40.406 24.3845 39.887C24.9036 39.368 25.2226 38.8478 25.4611 38.2339C25.6919 37.6404 25.8498 36.9617 25.895 35.9684C25.9405 34.973 25.9513 34.6551 25.9513 32.1202C25.9513 29.5854 25.9405 29.2676 25.895 28.272C25.8498 27.2788 25.6919 26.6001 25.4611 26.0066C25.2226 25.3927 24.9036 24.8722 24.3845 24.3535C23.8654 23.8344 23.3453 23.5154 22.7314 23.2769C22.1372 23.0464 21.4588 22.8886 20.4656 22.8434C19.4701 22.7978 19.1522 22.7871 16.6174 22.7871ZM16.6174 27.3277C13.9703 27.3277 11.8248 29.4736 11.8248 32.1202C11.8248 34.767 13.9707 36.9128 16.6174 36.9128C19.2641 36.9128 21.4099 34.767 21.4099 32.1202C21.4099 29.4736 19.2644 27.3277 16.6174 27.3277ZM16.6174 35.2312C14.8991 35.2312 13.5064 33.8382 13.5064 32.1202C13.5064 30.402 14.8994 29.0093 16.6174 29.0093C18.3353 29.0093 19.7283 30.4023 19.7283 32.1202C19.7283 33.8386 18.3357 35.2312 16.6174 35.2312ZM22.7196 27.138C22.7196 27.7566 22.2182 28.258 21.5996 28.258C20.9811 28.258 20.4796 27.7566 20.4796 27.138C20.4796 26.5195 20.9811 26.018 21.5996 26.018C22.2182 26.018 22.7196 26.5195 22.7196 27.138Z" fill="white" style="fill:white;fill-opacity:1;"/>
</g>
<g clip-path="url(#clip1_1_26922)">
<path d="M60.6176 16.1211C73.9509 16.1211 76.6176 18.7878 76.6176 32.1211C76.6176 45.4544 73.9509 48.1211 60.6176 48.1211C47.2842 48.1211 44.6176 45.4544 44.6176 32.1211C44.6176 18.7878 47.2842 16.1211 60.6176 16.1211Z" fill="url(#paint1_linear_1_26922)" style=""/>
<path d="M52.4787 31.9863C57.1431 29.9542 60.2533 28.6144 61.8096 27.9671C66.253 26.119 67.1762 25.798 67.7781 25.7872C67.9104 25.785 68.2064 25.8178 68.3981 25.9734C68.5599 26.1047 68.6045 26.2821 68.6258 26.4067C68.6471 26.5312 68.6736 26.8148 68.6525 27.0365C68.4117 29.5665 67.3698 35.7061 66.8398 38.5397C66.6155 39.7387 66.1738 40.1407 65.7464 40.1801C64.8172 40.2656 64.1117 39.566 63.2117 38.9762C61.8035 38.053 61.008 37.4784 59.641 36.5776C58.0613 35.5367 59.0854 34.9644 59.9856 34.0294C60.2213 33.7847 64.3152 30.061 64.3944 29.7232C64.4042 29.681 64.4135 29.5235 64.3199 29.4404C64.2264 29.3572 64.0882 29.3857 63.9886 29.4082C63.8474 29.4403 61.5978 30.9272 57.2397 33.869C56.6012 34.3075 56.0228 34.5212 55.5046 34.51C54.9333 34.4976 53.8344 34.1869 53.0175 33.9214C52.0154 33.5956 51.2191 33.4235 51.2885 32.8703C51.3246 32.5822 51.7213 32.2875 52.4787 31.9863Z" fill="white" style="fill:white;fill-opacity:1;"/>
</g>
<g clip-path="url(#clip2_1_26922)">
<path d="M104.618 16.1211C117.951 16.1211 120.618 18.7878 120.618 32.1211C120.618 45.4544 117.951 48.1211 104.618 48.1211C91.2842 48.1211 88.6176 45.4544 88.6176 32.1211C88.6176 18.7878 91.2842 16.1211 104.618 16.1211Z" fill="#EA3323" style="fill:#EA3323;fill:color(display-p3 0.9176 0.2000 0.1373);fill-opacity:1;"/>
<path d="M100.618 37.4538L110.618 32.1204L100.618 26.7871V37.4538Z" fill="white" style="fill:white;fill-opacity:1;"/>
</g>
<g clip-path="url(#clip3_1_26922)">
<path d="M164.618 43.6766C164.618 46.1655 162.662 48.1211 160.173 48.1211H137.062C134.573 48.1211 132.618 46.1655 132.618 43.6766V20.5655C132.618 18.0766 134.573 16.1211 137.062 16.1211H160.173C162.662 16.1211 164.618 18.0766 164.618 20.5655V43.6766Z" fill="#425893" style="fill:#425893;fill:color(display-p3 0.2588 0.3451 0.5765);fill-opacity:1;"/>
<path d="M157.862 33.0104H154.84V44.566H150.395V33.0104H147.729V29.4549H150.395V27.3215C150.395 24.2104 151.729 22.3438 155.373 22.3438H158.395V25.8993H156.351C154.929 25.8993 154.84 26.4326 154.84 27.4104V29.4549H158.395L157.862 33.0104Z" fill="white" style="fill:white;fill-opacity:1;"/>
</g>
<defs>
<linearGradient id="paint0_linear_1_26922" x1="29.1578" y1="19.892" x2="3.98035" y2="44.4447" gradientUnits="userSpaceOnUse">
<stop stop-color="#AA22AC" style="stop-color:#AA22AC;stop-color:color(display-p3 0.6667 0.1333 0.6745);stop-opacity:1;"/>
<stop offset="0.5" stop-color="#E03021" style="stop-color:#E03021;stop-color:color(display-p3 0.8784 0.1882 0.1294);stop-opacity:1;"/>
<stop offset="1" stop-color="#F2AC3C" style="stop-color:#F2AC3C;stop-color:color(display-p3 0.9490 0.6745 0.2353);stop-opacity:1;"/>
</linearGradient>
<linearGradient id="paint1_linear_1_26922" x1="60.6176" y1="16.1211" x2="60.6176" y2="47.8836" gradientUnits="userSpaceOnUse">
<stop stop-color="#55A9E8" style="stop-color:#55A9E8;stop-color:color(display-p3 0.3333 0.6627 0.9098);stop-opacity:1;"/>
<stop offset="1" stop-color="#4D9CD4" style="stop-color:#4D9CD4;stop-color:color(display-p3 0.3020 0.6118 0.8314);stop-opacity:1;"/>
</linearGradient>
<clipPath id="clip0_1_26922">
<rect width="32" height="32" fill="white" style="fill:white;fill-opacity:1;" transform="translate(0.617554 16.1211)"/>
</clipPath>
<clipPath id="clip1_1_26922">
<rect width="32" height="32" fill="white" style="fill:white;fill-opacity:1;" transform="translate(44.6176 16.1211)"/>
</clipPath>
<clipPath id="clip2_1_26922">
<rect width="32" height="32" fill="white" style="fill:white;fill-opacity:1;" transform="translate(88.6176 16.1211)"/>
</clipPath>
<clipPath id="clip3_1_26922">
<rect width="32" height="32" fill="white" style="fill:white;fill-opacity:1;" transform="translate(132.618 16.1211)"/>
</clipPath>
</defs>
</svg>
